<svg width="20" height="20" viewBox="0 0 20 20" fill="none" xmlns="http://www.w3.org/2000/svg">
<path d="M1.71875 13.7406C1.89474 13.9401 2.11115 14.0998 2.35361 14.2091C2.59606 14.3185 2.85902 14.3751 3.125 14.375H7.5V15.625C7.5 16.4538 7.82924 17.2487 8.41529 17.8347C9.00134 18.4208 9.7962 18.75 10.625 18.75C10.7411 18.7501 10.855 18.7178 10.9538 18.6568C11.0526 18.5958 11.1324 18.5085 11.1844 18.4047L14.1359 12.5H17.5C17.8315 12.5 18.1495 12.3683 18.3839 12.1339C18.6183 11.8995 18.75 11.5815 18.75 11.25V4.375C18.75 4.04348 18.6183 3.72554 18.3839 3.49112C18.1495 3.2567 17.8315 3.125 17.5 3.125H4.0625C3.6057 3.12484 3.16455 3.29145 2.8219 3.59354C2.47925 3.89562 2.25866 4.31241 2.20156 4.76562L1.26406 12.2656C1.23083 12.5297 1.25419 12.7978 1.33259 13.0521C1.41099 13.3064 1.54262 13.5411 1.71875 13.7406ZM17.5 11.25H14.375V4.375H17.5V11.25ZM2.50469 12.4219L3.44219 4.92188C3.46122 4.7708 3.53475 4.63187 3.64897 4.53118C3.76319 4.43048 3.91023 4.37495 4.0625 4.375H13.125V11.7273L10.257 17.4641C9.83196 17.379 9.4495 17.1493 9.17474 16.814C8.89997 16.4786 8.74988 16.0585 8.75 15.625V13.75C8.75 13.5842 8.68415 13.4253 8.56694 13.3081C8.44973 13.1908 8.29076 13.125 8.125 13.125H3.125C3.03631 13.125 2.94863 13.1062 2.86778 13.0697C2.78694 13.0332 2.71478 12.98 2.65611 12.9135C2.59743 12.847 2.55358 12.7687 2.52748 12.684C2.50137 12.5992 2.4936 12.5099 2.50469 12.4219Z" fill="#757575"/>
</svg>
