<svg width="20" height="20" viewBox="0 0 20 20" fill="none" xmlns="http://www.w3.org/2000/svg">
<path d="M1.71875 13.7406C1.89474 13.9401 2.11115 14.0998 2.35361 14.2091C2.59606 14.3185 2.85901 14.3751 3.125 14.375H7.5V15.625C7.5 16.4538 7.82924 17.2487 8.41529 17.8347C9.00134 18.4208 9.7962 18.75 10.625 18.75C10.7411 18.7501 10.855 18.7178 10.9538 18.6568C11.0526 18.5958 11.1324 18.5085 11.1844 18.4047L14.1359 12.5H17.5C17.8315 12.5 18.1495 12.3683 18.3839 12.1339C18.6183 11.8995 18.75 11.5815 18.75 11.25V4.375C18.75 4.04348 18.6183 3.72554 18.3839 3.49112C18.1495 3.2567 17.8315 3.125 17.5 3.125H4.0625C3.6057 3.12484 3.16455 3.29145 2.8219 3.59354C2.47925 3.89562 2.25866 4.31241 2.20156 4.76562L1.26406 12.2656C1.23083 12.5297 1.25419 12.7978 1.33259 13.0521C1.41099 13.3064 1.54262 13.5411 1.71875 13.7406ZM17.5 11.25H14.375V4.375H17.5V11.25Z" fill="#141414"/>
</svg>
