<svg width="52" height="20" viewBox="0 0 52 20" fill="none" xmlns="http://www.w3.org/2000/svg">
<path d="M3.456 15.508C2.816 15.508 2.232 15.364 1.704 15.076C1.192 14.772 0.776 14.356 0.456 13.828C0.152 13.284 0 12.676 0 12.004C0 11.332 0.152 10.74 0.456 10.228C0.776 9.69998 1.192 9.29198 1.704 9.00398C2.232 8.69998 2.816 8.54798 3.456 8.54798C4.096 8.54798 4.68 8.69998 5.208 9.00398C5.736 9.29198 6.152 9.69998 6.456 10.228C6.776 10.74 6.936 11.332 6.936 12.004C6.936 12.676 6.776 13.284 6.456 13.828C6.152 14.356 5.736 14.772 5.208 15.076C4.68 15.364 4.096 15.508 3.456 15.508Z" fill="black"/>
<path d="M15.4219 19.012C14.2379 19.012 13.1579 18.74 12.1819 18.196C11.2219 17.636 10.4539 16.86 9.87788 15.868C9.30188 14.86 9.01388 13.66 9.01388 12.268C9.01388 10.892 9.30188 9.70798 9.87788 8.71598C10.4539 7.70798 11.2219 6.93198 12.1819 6.38798C13.1579 5.84398 14.2379 5.57198 15.4219 5.57198C16.5419 5.57198 17.4859 5.81198 18.2539 6.29198C19.0379 6.77198 19.6299 7.50798 20.0299 8.49998C20.4299 9.49198 20.6299 10.748 20.6299 12.268C20.6299 13.82 20.4379 15.092 20.0539 16.084C19.6699 17.076 19.0939 17.812 18.3259 18.292C17.5579 18.772 16.5899 19.012 15.4219 19.012ZM16.3819 15.388C16.8939 15.388 17.3499 15.268 17.7499 15.028C18.1659 14.788 18.4939 14.436 18.7339 13.972C18.9739 13.492 19.0939 12.924 19.0939 12.268C19.0939 11.612 18.9739 11.06 18.7339 10.612C18.4939 10.148 18.1659 9.79598 17.7499 9.55598C17.3499 9.31598 16.8939 9.19598 16.3819 9.19598C15.8539 9.19598 15.3819 9.31598 14.9659 9.55598C14.5659 9.79598 14.2459 10.148 14.0059 10.612C13.7659 11.06 13.6459 11.612 13.6459 12.268C13.6459 12.924 13.7659 13.492 14.0059 13.972C14.2459 14.436 14.5659 14.788 14.9659 15.028C15.3819 15.268 15.8539 15.388 16.3819 15.388ZM19.2379 18.796V16.564L19.2619 12.268L19.0219 7.97198V0.987976H23.5819V18.796H19.2379Z" fill="black"/>
<path d="M33.0437 19.012C31.6197 19.012 30.3557 18.724 29.2517 18.148C28.1477 17.572 27.2757 16.78 26.6357 15.772C26.0117 14.748 25.6997 13.58 25.6997 12.268C25.6997 10.956 26.0117 9.79598 26.6357 8.78798C27.2757 7.77998 28.1477 6.99598 29.2517 6.43598C30.3557 5.85998 31.6197 5.57198 33.0437 5.57198C34.4677 5.57198 35.7317 5.85998 36.8357 6.43598C37.9557 6.99598 38.8277 7.77998 39.4517 8.78798C40.0757 9.79598 40.3877 10.956 40.3877 12.268C40.3877 13.58 40.0757 14.748 39.4517 15.772C38.8277 16.78 37.9557 17.572 36.8357 18.148C35.7317 18.724 34.4677 19.012 33.0437 19.012ZM33.0437 15.388C33.5717 15.388 34.0357 15.268 34.4357 15.028C34.8517 14.788 35.1797 14.436 35.4197 13.972C35.6597 13.492 35.7797 12.924 35.7797 12.268C35.7797 11.612 35.6597 11.06 35.4197 10.612C35.1797 10.148 34.8517 9.79598 34.4357 9.55598C34.0357 9.31598 33.5717 9.19598 33.0437 9.19598C32.5317 9.19598 32.0677 9.31598 31.6517 9.55598C31.2517 9.79598 30.9237 10.148 30.6677 10.612C30.4277 11.06 30.3077 11.612 30.3077 12.268C30.3077 12.924 30.4277 13.492 30.6677 13.972C30.9237 14.436 31.2517 14.788 31.6517 15.028C32.0677 15.268 32.5317 15.388 33.0437 15.388Z" fill="black"/>
<path d="M48.3081 19.012C46.6441 19.012 45.3481 18.604 44.4201 17.788C43.4921 16.956 43.0281 15.708 43.0281 14.044V2.88398H47.5881V13.996C47.5881 14.46 47.7161 14.828 47.9721 15.1C48.2281 15.356 48.5561 15.484 48.9561 15.484C49.5001 15.484 49.9641 15.348 50.3481 15.076L51.4761 18.268C51.0921 18.524 50.6201 18.708 50.0601 18.82C49.5001 18.948 48.9161 19.012 48.3081 19.012ZM41.1321 9.67598V6.26798H50.5641V9.67598H41.1321Z" fill="black"/>
</svg>
